<?xml version="1.0" encoding="UTF-8"?>
<svg id="Layer_1" data-name="Layer 1" xmlns="http://www.w3.org/2000/svg" viewBox="0 0 1404.54 791.33">
  <defs>
    <style>
      .cls-1 {
        fill: #3ddb85;
      }
    </style>
  </defs>
  <path class="cls-1" d="m1025.49,591.21c-32.25,0-58.48-26.25-58.48-58.5s26.23-58.48,58.48-58.48,58.49,26.23,58.49,58.48-26.23,58.5-58.49,58.5m-646.44,0c-32.25,0-58.48-26.25-58.48-58.5s26.23-58.48,58.48-58.48,58.48,26.23,58.48,58.48-26.23,58.5-58.48,58.5m667.42-352.3l116.89-202.44c6.7-11.63,2.72-26.49-8.9-33.22-11.63-6.7-26.49-2.71-33.22,8.9l-118.35,205c-90.51-41.3-192.15-64.31-300.62-64.31s-210.11,23.01-300.61,64.31L283.3,12.15c-6.73-11.62-21.58-15.6-33.22-8.9-11.63,6.72-15.61,21.59-8.9,33.22l116.89,202.44C157.36,348.07,20.08,551.27,0,791.33h1404.54c-20.1-240.06-157.37-443.26-358.07-552.43"/>
</svg>