<?xml version="1.0" encoding="UTF-8"?>
<svg id="Layer_2" data-name="Layer 2" xmlns="http://www.w3.org/2000/svg" viewBox="0 0 1251 1353">
  <defs>
    <style>
      .cls-1 {
        fill: #3870b2;
      }

      .cls-2 {
        fill: #47de8a;
      }

      .cls-3 {
        fill: #fff;
      }

      .cls-4 {
        fill: #1d4269;
      }

      .cls-5 {
        fill: #0a2f3e;
      }

      .cls-6 {
        fill: #0a3544;
      }

      .cls-7 {
        fill: #0a3645;
      }

      .cls-8 {
        fill: #d6f0ff;
      }

      .cls-9 {
        fill: #4285f4;
      }

      .cls-10 {
        fill: #3ddc84;
      }

      .cls-11 {
        fill: #4780d4;
      }

      .cls-12 {
        fill: #37bf6e;
      }

      .cls-13 {
        fill: #44dd89;
      }

      .cls-14 {
        fill: #083042;
      }

      .cls-15 {
        fill: #3ddb83;
      }

      .cls-16 {
        fill: #041619;
      }

      .cls-17 {
        fill: #39c071;
      }
    </style>
  </defs>
  <g id="Layer_1-2" data-name="Layer 1">
    <g>
      <path class="cls-9" d="m1038.95,429.86c8.89,12.29,15.72,25.83,15.86,41.01.78,87.56,1.04,175.12,1.31,262.69.14,44.48.47,88.96-.28,133.43-.6,35.52-16.59,63.55-46.77,82.15-37.23,22.95-75.26,44.6-112.94,66.83-37.39,22.06-74.76,44.17-112.16,66.23-36.08,21.28-72.09,42.67-108.3,63.7-14.68,8.53-30.71,12.93-47.82,12.92.05-22.82.15-45.64.14-68.45,0-40.47-.07-80.95-.11-121.42.15-.28.27-.57.36-.87,10.51.66,20.06-2.54,28.94-7.75,28.52-16.72,56.94-33.59,85.41-50.39,19.45-11.48,38.88-23.02,58.39-34.4,11.44-6.67,23.11-12.93,34.52-19.65,8.2-4.83,16.37-9.79,24.11-15.32,5.23-3.73,10.55-7.91,14.32-13.01,8.58-11.6,13.76-24.63,12.12-39.54.13-.1.38-.23.36-.29-.06-.27-.2-.52-.31-.77,0-76.31,0-152.61,0-228.92.12-.11.36-.25.34-.32-.08-.27-.23-.51-.36-.76-.45-3.54-.32-7.28-1.46-10.59-2.27-6.6-5.22-12.97-7.9-19.44.13-.28.22-.56.28-.87,1.47-.75,3-1.39,4.4-2.26,11.38-7.1,22.66-14.35,34.11-21.33,11.87-7.23,23.9-14.22,35.87-21.3,10.83-6.41,21.69-12.77,32.49-19.23,11.53-6.88,22.95-13.94,34.52-20.74,6.75-3.97,13.7-7.58,20.56-11.35Z"/>
      <path class="cls-10" d="m1038.95,429.86c-6.86,3.77-13.81,7.39-20.56,11.35-11.57,6.8-23,13.86-34.52,20.74-10.8,6.45-21.66,12.81-32.49,19.23-11.96,7.08-23.99,14.06-35.87,21.3-11.45,6.98-22.73,14.23-34.11,21.33-1.39.87-2.93,1.51-4.4,2.26-.94-.59-2.14-.97-2.79-1.79-6.17-7.77-13.56-14.01-22.25-18.85-18.99-10.58-37.92-21.28-56.85-31.98-22.1-12.49-44.19-25.01-66.27-37.54-18.91-10.72-37.67-21.71-56.75-32.12-12.03-6.56-23.24-14.97-37.08-17.79-1-.02-1.99-.04-2.99-.06l-20.03.03c-1,.33-1.99.66-2.99,1-.94-.17-2.06-.76-2.8-.45-5.37,2.21-10.94,4.13-15.94,7.02-21.54,12.5-42.89,25.3-64.33,37.98-25.43,15.04-50.86,30.1-76.32,45.1-17.74,10.45-35.46,20.92-53.3,31.2-10.72,6.17-19.68,13.98-25.34,25.18-.62.21-1.25.42-1.87.63-2.06-1.2-4.12-2.41-6.19-3.61-6.37-3.68-12.74-7.36-19.1-11.05-.26-.25-.52-.5-.78-.75-8.07-4.42-16.15-8.83-24.22-13.25-.26-.25-.52-.5-.78-.75-8.08-4.42-16.15-8.83-24.23-13.25-.25-.22-.51-.43-.76-.65-8.08-4.45-16.16-8.9-24.24-13.35-.25-.22-.51-.43-.76-.65-1.5-.69-3.05-1.28-4.49-2.07-19.52-10.79-39.03-21.6-58.54-32.4,3.82-6.58,7.09-13.55,11.55-19.65,11.39-15.56,28.91-23.12,44.74-32.76,19.17-11.67,38.62-22.86,57.98-34.21,8.21-4.81,16.51-9.49,24.77-14.22.3-.24.61-.49.91-.73,1.29-.76,2.59-1.51,3.88-2.27.37-.24.74-.47,1.11-.71,1.3-.76,2.59-1.53,3.89-2.29.37-.23.74-.45,1.11-.68,3.63-2.1,7.26-4.21,10.9-6.31.37-.24.74-.47,1.11-.71,1.3-.76,2.6-1.53,3.9-2.29.37-.23.73-.45,1.1-.68,3.63-2.11,7.27-4.21,10.9-6.32.37-.25.74-.49,1.11-.74,1.3-.76,2.59-1.51,3.89-2.27.37-.24.74-.47,1.11-.71,1.3-.76,2.6-1.53,3.9-2.29.37-.23.73-.45,1.1-.68,3.7-2.11,7.4-4.21,11.11-6.32.3-.24.6-.47.91-.71,1.29-.76,2.59-1.53,3.88-2.29.37-.24.74-.47,1.11-.71,1.3-.76,2.59-1.53,3.89-2.29.37-.22.73-.43,1.1-.65,21.74-12.78,43.49-25.53,65.2-38.35,18.36-10.84,36.61-21.89,55.03-32.63,14.63-8.53,28.93-17.89,44.31-24.8,19.86-8.92,41.02-9.77,62.48-5.15,16.92,3.64,30.98,13.01,45.66,21.17,21.99,12.21,43.78,24.78,65.67,37.16,23.19,13.12,46.43,26.16,69.6,39.31,23.11,13.12,46.1,26.44,69.24,39.5,37.71,21.29,75.63,42.22,113.2,63.75,13.37,7.66,24.39,18.28,32.6,31.54Z"/>
      <path class="cls-14" d="m293.81,490.98c8.08,4.42,16.15,8.83,24.23,13.25.26.25.52.5.78.75,8.07,4.42,16.15,8.83,24.22,13.25.26.25.52.5.78.75,6.37,3.68,12.74,7.36,19.1,11.05,2.07,1.2,4.13,2.4,6.19,3.61.31.42.61.85.92,1.27-1.69,7.37-3.39,14.75-5.08,22.12-.32,1.73-.91,3.47-.91,5.2-.05,80.85-.05,161.7,0,242.55,0,1.73.59,3.47.91,5.2,1.06,11.05,5.26,20.58,14.46,27.13,5.91,4.21,12.32,7.76,18.63,11.38,10.6,6.1,21.27,12.09,31.97,17.99,8.94,4.93,17.99,9.68,26.99,14.51.98.67,1.96,1.34,2.94,2.01,2.02,1.02,4.05,2.04,6.07,3.05.31.31.62.62.92.93,4.35,2.67,8.71,5.34,13.06,8.01.98.34,1.96.67,2.94,1.01,2.02,1.01,4.05,2.03,6.07,3.04.32.31.63.63.95.94,4.35,2.67,8.7,5.34,13.04,8.01.98.34,1.95.67,2.93,1.01,2.03,1.01,4.05,2.03,6.08,3.04.32.31.63.63.95.94,10.7,6.18,21.38,12.4,32.1,18.54,14.3,8.19,28.63,16.31,42.94,24.47.98.34,1.96.67,2.94,1.01,7.14,5.29,15.07,8.74,23.85,10.13,4.35.69,8.73,1.22,13.09,1.82.04,40.47.1,80.95.11,121.42,0,22.82-.09,45.64-.14,68.45-18.25.37-35.1-4.09-50.86-13.5-13.75-8.21-28.04-15.52-41.99-23.42-29.6-16.76-59.11-33.69-88.71-50.46-13.38-7.59-26.92-14.9-40.31-22.47-16.72-9.44-33.33-19.09-50.06-28.51-12.41-6.99-25.02-13.63-37.41-20.66-23.8-13.5-47.53-27.14-71.24-40.79-9.08-5.23-18.63-9.89-26.95-16.16-15.05-11.34-24.36-26.44-25.3-45.83-.2-4.16-.18-8.33-.18-12.49,0-132.12.04-264.24-.08-396.36-.01-14.53,1.82-28.58,7.31-42.05.64-1.56,1.95-2.86,2.95-4.27,19.51,10.81,39.02,21.62,58.54,32.4,1.44.8,2.99,1.39,4.49,2.07.25.22.51.43.76.65,8.08,4.45,16.16,8.9,24.24,13.35.25.22.51.43.76.65Z"/>
      <path class="cls-2" d="m344.97,340.28c-.3.24-.61.49-.91.73.3-.24.61-.49.91-.73Z"/>
      <path class="cls-13" d="m366.96,327.31c-.37.24-.74.47-1.11.71.37-.24.74-.47,1.11-.71Z"/>
      <path class="cls-13" d="m371.95,324.34c-.37.23-.73.45-1.1.68.37-.23.73-.45,1.1-.68Z"/>
      <path class="cls-13" d="m383.96,317.29c-.37.24-.74.49-1.11.74.37-.24.74-.49,1.11-.74Z"/>
      <path class="cls-13" d="m388.96,314.31c-.37.24-.74.47-1.11.71.37-.24.74-.47,1.11-.71Z"/>
      <path class="cls-2" d="m354.96,334.33c-.37.23-.74.45-1.11.68.37-.23.74-.45,1.11-.68Z"/>
      <path class="cls-13" d="m393.95,311.34c-.37.23-.73.45-1.1.68.37-.23.73-.45,1.1-.68Z"/>
      <path class="cls-2" d="m405.97,304.31c-.3.24-.6.47-.91.71.3-.24.6-.47.91-.71Z"/>
      <path class="cls-2" d="m410.96,301.31c-.37.24-.74.47-1.11.71.37-.24.74-.47,1.11-.71Z"/>
      <path class="cls-2" d="m349.96,337.31c-.37.24-.74.47-1.11.71.37-.24.74-.47,1.11-.71Z"/>
      <path class="cls-2" d="m415.95,298.36c-.37.22-.73.43-1.1.65.37-.22.73-.43,1.1-.65Z"/>
      <path class="cls-1" d="m886.1,558.04c0,76.31,0,152.61,0,228.92-.02.35-.03.71-.05,1.06,1.65,14.92-3.53,27.95-12.12,39.54-3.77,5.1-9.09,9.27-14.32,13.01-7.74,5.52-15.91,10.48-24.11,15.32-11.41,6.72-23.08,12.98-34.52,19.65-19.52,11.38-38.94,22.92-58.39,34.4-28.47,16.8-56.89,33.68-85.41,50.39-8.88,5.21-18.42,8.41-28.94,7.75-.32-19.11-.7-38.23-.93-57.34-.16-12.65-.1-25.3-.14-37.95,0-.24-.04-.48-.1-.71,7.99-.69,15.18-3.33,22.12-7.54,17.5-10.63,35.34-20.71,52.98-31.1,25.62-15.09,51.29-30.09,76.73-45.49,12.65-7.66,20.94-18.78,21.03-34.11.28-50.65.16-101.31.29-151.96.02-8.48-1.68-16.41-5.93-23.76,23.45-14.98,46.87-30.01,70.38-44.89,3.82-2.42,8.03-4.2,12.06-6.28,2.67,6.47,5.63,12.83,7.9,19.44,1.14,3.31,1.01,7.05,1.46,10.59,0,.36.01.72.02,1.07Z"/>
      <path class="cls-12" d="m876.72,526.94c-4.03,2.08-8.25,3.87-12.06,6.28-23.51,14.89-46.93,29.91-70.38,44.89-3.81-4.13-7.18-8.83-11.55-12.24-4.92-3.84-10.76-6.5-16.17-9.71-8.66-5.15-17.2-10.5-25.97-15.46-9.26-5.25-18.79-10.01-28.07-15.23-8.7-4.89-17.16-10.22-25.87-15.1-9.02-5.04-18.23-9.73-27.32-14.65-6.71-3.63-13.19-7.72-20.06-11-9.19-4.39-19.18-5.88-28.51-1.48-12.28,5.79-24.11,12.6-35.85,19.45-30.46,17.76-60.75,35.81-91.15,53.68-11.46,6.73-23.84,12.34-29.46,25.74-.51-.01-1.01-.02-1.52-.03-6.75-3.97-13.49-7.94-20.24-11.91-5.21-3.07-10.37-6.22-15.62-9.22-15.3-8.74-30.64-17.43-45.96-26.14,0-.6,0-1.21.01-1.81,5.66-11.2,14.62-19,25.34-25.18,17.84-10.27,35.57-20.75,53.3-31.2,25.46-15,50.88-30.05,76.32-45.1,21.43-12.68,42.79-25.49,64.33-37.98,4.99-2.9,10.57-4.81,15.94-7.02.74-.31,1.86.28,2.8.45,1-.33,1.99-.66,2.99-1,6.68-.01,13.35-.02,20.03-.03,1,.02,1.99.04,2.99.06,13.85,2.82,25.05,11.23,37.08,17.79,19.08,10.41,37.84,21.39,56.75,32.12,22.08,12.52,44.17,25.05,66.27,37.54,18.93,10.69,37.85,21.4,56.85,31.98,8.68,4.84,16.08,11.07,22.25,18.85.65.82,1.85,1.2,2.79,1.79-.06.3-.15.59-.28.87Z"/>
      <path class="cls-16" d="m370.97,534.81c15.32,8.71,30.66,17.4,45.96,26.14,5.25,3,10.41,6.15,15.62,9.22,6.74,3.98,13.49,7.94,20.24,11.91.38.33.76.65,1.14.98-.99,6.96-2.8,13.92-2.83,20.88-.24,52.98-.07,105.95-.18,158.93-.02,10.86,4.58,18.81,13.79,24.07,16.08,9.18,32.32,18.09,48.45,27.19,27.28,15.41,54.48,30.97,81.82,46.28,6.78,3.8,13.85,7.12,20.98,10.22,3.07,1.33,6.63,1.54,9.96,2.26.42-.04.85-.08,1.27-.12.04,12.65-.01,25.3.14,37.95.23,19.11.61,38.23.93,57.34-.08.31-.2.6-.36.87-4.36-.6-8.74-1.13-13.09-1.82-8.78-1.39-16.72-4.84-23.85-10.13-.98-.34-1.96-.67-2.94-1.01-14.32-8.15-28.65-16.28-42.94-24.47-10.72-6.14-21.4-12.36-32.1-18.54-.32-.31-.63-.63-.95-.94-2.03-1.01-4.05-2.03-6.08-3.04-.98-.34-1.96-.67-2.93-1.01-4.35-2.67-8.7-5.34-13.04-8.01-.32-.31-.63-.63-.95-.94-2.02-1.01-4.05-2.03-6.07-3.04-.98-.34-1.96-.67-2.94-1.01-4.35-2.67-8.71-5.34-13.06-8.01-.31-.31-.62-.62-.93-.93-2.02-1.02-4.05-2.04-6.07-3.05-.98-.67-1.96-1.34-2.94-2.01-9-4.83-18.05-9.58-26.99-14.51-10.71-5.91-21.37-11.9-31.97-17.99-6.31-3.63-12.71-7.17-18.63-11.38-9.2-6.55-13.41-16.08-14.46-27.13,0-84.32,0-168.64,0-252.96,1.69-7.37,3.39-14.75,5.08-22.12,0,0,.48.04.48.04l.46-.13Z"/>
      <path class="cls-11" d="m886.1,558.04c0-.36-.01-.72-.02-1.07.13.25.28.49.36.76.02.07-.22.21-.34.32Z"/>
      <path class="cls-11" d="m886.05,788.02c.02-.35.03-.71.05-1.06.11.26.26.5.32.77.01.07-.24.19-.36.29Z"/>
      <path class="cls-15" d="m611.99,385.98c-1,.33-1.99.66-2.99,1,1-.33,1.99-.66,2.99-1Z"/>
      <path class="cls-15" d="m635.01,386.02c-1-.02-1.99-.04-2.99-.06,1,.02,1.99.04,2.99.06Z"/>
      <path class="cls-15" d="m370.97,534.81l-.46.13s-.48-.04-.48-.04c-.31-.42-.61-.85-.92-1.27.63-.21,1.25-.42,1.87-.63,0,.6,0,1.21-.01,1.81Z"/>
      <path class="cls-6" d="m293.81,490.98c-.25-.22-.51-.43-.76-.65.25.22.51.43.76.65Z"/>
      <path class="cls-7" d="m318.81,504.98c-.26-.25-.52-.5-.78-.75.26.25.52.5.78.75Z"/>
      <path class="cls-7" d="m343.81,518.98c-.26-.25-.52-.5-.78-.75.26.25.52.5.78.75Z"/>
      <path class="cls-6" d="m268.81,476.98c-.25-.22-.51-.43-.76-.65.25.22.51.43.76.65Z"/>
      <path class="cls-5" d="m364.95,557.02c0,84.32,0,168.64,0,252.96-.32-1.73-.91-3.47-.91-5.2-.05-80.85-.05-161.7,0-242.55,0-1.73.59-3.47.91-5.2Z"/>
      <path class="cls-5" d="m457,881c.98.67,1.96,1.34,2.94,2.01-.98-.67-1.96-1.34-2.94-2.01Z"/>
      <path class="cls-5" d="m503,908c.98.34,1.96.67,2.93,1.01-.98-.34-1.96-.67-2.93-1.01Z"/>
      <path class="cls-5" d="m588,956c.98.34,1.96.67,2.94,1.01-.98-.34-1.96-.67-2.94-1.01Z"/>
      <path class="cls-5" d="m480,895c.98.34,1.96.67,2.94,1.01-.98-.34-1.96-.67-2.94-1.01Z"/>
      <path class="cls-5" d="m466.01,886.06c.31.31.62.62.93.93-.31-.31-.62-.62-.93-.93Z"/>
      <path class="cls-5" d="m489.01,899.05c.32.31.63.63.95.94-.32-.31-.63-.63-.95-.94Z"/>
      <path class="cls-5" d="m512.01,912.05c.32.31.63.63.95.94-.32-.31-.63-.63-.95-.94Z"/>
      <path class="cls-8" d="m625.9,872.91c-3.33-.72-6.89-.93-9.96-2.26-7.13-3.1-14.2-6.42-20.98-10.22-27.34-15.32-54.53-30.87-81.82-46.28-16.12-9.11-32.37-18.01-48.45-27.19-9.21-5.26-13.82-13.21-13.79-24.07.12-52.98-.05-105.95.18-158.93.03-6.97,1.84-13.92,2.83-20.88.13-.32.25-.63.38-.95,5.62-13.39,18-19,29.46-25.74,30.4-17.87,60.69-35.92,91.15-53.68,11.75-6.85,23.58-13.66,35.85-19.45,9.34-4.4,19.32-2.91,28.51,1.48,6.87,3.28,13.35,7.37,20.06,11,9.09,4.92,18.31,9.6,27.32,14.65,8.71,4.87,17.16,10.21,25.87,15.1,9.28,5.21,18.81,9.98,28.07,15.23,8.76,4.96,17.31,10.31,25.97,15.46,5.41,3.22,11.25,5.87,16.17,9.71,4.37,3.41,7.74,8.11,11.55,12.24,4.25,7.36,5.95,15.29,5.93,23.76-.13,50.65,0,101.31-.29,151.96-.09,15.33-8.38,26.46-21.03,34.11-25.44,15.4-51.11,30.39-76.73,45.49-17.64,10.39-35.48,20.47-52.98,31.1-6.93,4.21-14.12,6.85-22.12,7.54-.39.28-.78.55-1.17.83Z"/>
      <path class="cls-4" d="m625.9,872.91c.39-.28.78-.55,1.17-.83.06.23.1.47.1.71-.42.04-.84.08-1.27.12Z"/>
      <path class="cls-17" d="m454.3,582.11c-.13.32-.25.63-.38.95-.38-.33-.76-.65-1.14-.98.51.01,1.01.02,1.52.03Z"/>
    </g>
  </g>
</svg>